<svg id="Camada_1" data-name="Camada 1" xmlns="http://www.w3.org/2000/svg" viewBox="0 0 7376.32 1198.97"><defs><style>.cls-1{fill:#635398;}</style></defs><title>Coalinha 2</title><path class="cls-1" d="M-2223.15,2385q-155.67-98.83-311.26-197.79c-15.3-9.75-29.86-9.36-44.89-.15-106.83,65.44-212,133.54-316.54,202.5-2.13,1.4-4,3.21-7.2,5.83,4.8,4.3,8.48,8.65,13.07,11.56q164.9,104.66,330,209h8c6-3.48,12.05-6.75,17.87-10.47q157-100.43,314-201c2.75-1.76,5.37-3.72,7.74-5.37C-2212.8,2391.31-2218,2388.26-2223.15,2385Z" transform="translate(3265.94 -1417.03)"/><path class="cls-1" d="M2540.81,2025.5c-14.91-13.2-31.1-25-47.74-38.19l10.79-7.27c30.71-20.71,52.78-48.07,61.44-84.45,10.26-43.08,6.79-86.07-10.8-126.32-25.81-59.06-75.07-86.21-137.36-90.79-31.53-2.31-63.28-1.9-94.93-2q-125.49-.48-251-.31-102,0-204,.51c-3.49,0-7,.44-10.24.65-2,23-1.11,686.31,1,694.52,3.07,0,6.36,0,9.64,0,171.31-1.06,342.62,2.43,513.92-1.77,22.74-.56,45.18-2.91,67.24-8.26,39.74-9.63,74.79-27.71,102.42-58.55,24.89-27.79,39-60.81,46.7-96.95,6.65-31.4,7.87-62.76-.85-94C2587.41,2077.56,2567.5,2049.13,2540.81,2025.5Zm-494.65-219.27c2.34-.2,4.24-.5,6.15-.51,49-.39,97.92-1,146.88-1,36,0,71.93.71,107.89,1.41a102.57,102.57,0,0,1,21.74,2.7c20.8,5,34.57,18.13,40.88,38.45a101.82,101.82,0,0,1-.56,62.93c-7.47,22.82-24.21,38.84-54.25,39.57-60.25,1.46-120.55,1.08-180.83,1.28-25.64.09-51.29-.27-76.94-.42-3.31,0-6.62,0-11,0Zm346,390.41c-10,25.37-29.24,38.93-56,39.26-74.3.94-148.6.87-222.91,1.16-19,.08-38,0-57,0h-11.73V2080.42c3.41-.2,6.59-.54,9.77-.56q45.48-.41,91-.7c33.65-.21,67.31-.86,101-.41,34,.46,67.95,1.69,101.89,3.24,18.79.85,32.54,10.66,41.47,27.13,6.33,11.66,8.71,24.4,9.55,37.46C2400.18,2163.72,2398.43,2180.56,2392.12,2196.64Z" transform="translate(3265.94 -1417.03)"/><path class="cls-1" d="M-748.09,2103.52c-47.3.21-94.6.78-141.9.49-26.56-.16-43.54,13.25-55.67,35.32-6.56,12-13,24.09-20.8,35.21-29.15,41.5-68.31,68.93-118.16,79.28-49.54,10.28-98.16,5.1-144.94-14-50.18-20.43-84.81-56.46-103.67-107.35-7.33-19.77-11.2-40.31-13.45-61.28-4.56-42.36-4.07-84.62,4.82-126.28,14.66-68.63,54.54-116.55,120.69-141.57,31.2-11.8,63.61-16.62,96.92-15.56,38.83,1.24,74.7,11.91,107.08,33.63,30.31,20.33,52.61,47.61,69.94,79.47,4.71,8.66,11,16.61,17.39,24.16,7.24,8.53,17,12.39,28.35,12.46,39.3.26,78.61.67,117.91.94,16,.11,31.92,0,49.26,0-1.47-10-2.43-18.26-3.95-26.43-1.69-9.15-3.63-18.28-5.9-27.31-21.33-84.86-70.59-146.57-151.49-181.65a589,589,0,0,0-187.76-47.33,634,634,0,0,0-113.78.88c-43.78,4.32-86.7,13.39-129,25.59-42,12.13-81.08,29.92-115,58-41.92,34.74-70.27,78.84-88.57,129.59-8.46,23.47-15.66,47.39-23.16,71.19-1.16,3.71-1.16,7.87-1.17,11.83-.08,39,.59,78-.29,117a182.59,182.59,0,0,0,10.36,66.46c12.6,35.48,25,71,44.17,103.59,22.85,38.84,53.31,69.74,94.15,89.62,69.08,33.65,141.32,56.3,218.26,62.77,45.7,3.84,91.21,2.61,136.42-4.9,68.22-11.35,132.41-34.58,193.08-67.59a219.52,219.52,0,0,0,75.53-67.15c23.64-33.56,37.21-71.21,44.33-111.35,2.13-12,3.45-24.14,5.36-37.8Z" transform="translate(3265.94 -1417.03)"/><path class="cls-1" d="M1736.8,2230.09c-1.12-58-.22-116-.55-174-.16-28.29.75-56.65-4.2-84.75-6.11-34.66-20.48-64.6-48.76-86.72-15.38-12-32.61-20.62-51.08-26.69-51.52-16.92-104.54-26.27-158.53-29.4-65.87-3.83-131.11,1.63-195.21,17.78-15.44,3.88-31,8.14-45.63,14.23-57.86,24.06-89.56,69-100.78,129.55-1,5.46-1.58,11-2.53,17.72h10.92q50.5,0,101,0c9.33,0,18.68.12,28-.42,14-.81,24.88-5.29,32-19.45,13.07-25.91,33.52-44.51,61.93-53.18,14.17-4.32,28.71-5.25,43.44-5.19,30.44.11,60.17,6.77,90.33,9.33,10.8.92,19.79,5.41,28,11.9,11.38,9,21,19.54,27.87,32.33a67.28,67.28,0,0,1,6,14.75c4.74,18.2-2.3,32.3-19.5,39.82a34.79,34.79,0,0,1-7.54,2.57c-11.11,2-22.19,4.71-33.4,5.55-49.48,3.71-99.09,5.67-148.37,12-33.66,4.35-67.46,7.67-101.06,12.42-23.7,3.35-47.18,8.42-69.44,17.68-41.28,17.17-69.31,46.47-80.92,90.19-7,26.27-6,52.8-.57,79.24,10.56,51.62,39.13,88.9,88.07,109.66a220.77,220.77,0,0,0,25.41,8.86c24.72,7.1,50.14,10.12,75.69,12.46,41,3.74,81.9,3.43,122.56-3a397.58,397.58,0,0,0,147.06-54c2.14-1.31,4.46-2.32,6.88-3.56,3.33,5.45,6.18,10.32,9.21,15.07,10.18,15.94,24.18,26.71,43.11,29.57,11.8,1.78,23.89,3.53,35.72,2.89,30.22-1.66,60.38-4.67,92.52-7.29-.47-9.46-.81-17.35-1.27-25.23C1741,2305.25,1737.54,2267.7,1736.8,2230.09Zm-226,25.5a259.81,259.81,0,0,1-98.56,33.09q-53.37,6.56-100-19.62c-21.92-12.34-29.94-33-30.78-56.83-.19-5.19,2.59-11.06,5.47-15.7,16-25.79,38.71-41.1,69.44-44.71,39.6-4.66,79.06-10.57,118.64-15.46,26.07-3.21,52.24-5.62,78.37-8.28,3.57-.36,7.21,0,11.66,0,.63,5.5,1.37,10.7,1.81,15.93C1570.86,2192.58,1553.65,2230.94,1510.75,2255.59Z" transform="translate(3265.94 -1417.03)"/><path class="cls-1" d="M724.8,2218.82c-1.12-59.63-.34-119.3-.5-179-.06-23.64,0-47.31-4.4-70.7-6.62-35-21.81-64.84-50.95-86.5a167.23,167.23,0,0,0-47.78-24.48c-51.81-17.07-105.15-26.54-159.47-29.66A660.39,660.39,0,0,0,251,1850.14c-67.08,18-111.35,58.89-128.1,127.39-2.33,9.55-3.63,19.36-5.64,30.3h11.37q50.47,0,101,0c9.33,0,18.68.11,28-.42,14-.79,26-4.79,31.92-19.52,2.45-6.05,6.76-11.47,10.76-16.77,15.46-20.47,35.73-33.71,60.92-38.85,19.44-4,39.12-3.41,58.71-1.33,19.85,2.1,39.65,4.68,59.44,7.22,5.91.76,12.25,1,17.54,3.36,25,11.24,42.12,30.29,50.22,56.34,5.62,18-2.12,32.25-19.36,39.83a32.53,32.53,0,0,1-7.53,2.57c-12.44,2.08-24.85,4.64-37.39,5.71-24.89,2.13-49.87,3.09-74.76,5.11q-35.34,2.88-70.56,7c-37.33,4.42-74.68,8.75-111.85,14.33-23,3.46-45.63,9.21-66.77,19.57-36.75,18-61.32,46.24-71.85,86.05-5.7,21.55-6.09,43.41-3,65.44,8.86,63.45,41.86,107.4,103.31,128.57,28.22,9.72,57.53,13.46,87.06,16.2,39.27,3.65,78.41,3.43,117.54-2a393.79,393.79,0,0,0,149.55-52.54c2.78-1.67,5.64-3.2,8.77-5,3.33,4.56,6.17,8.61,9.18,12.54,11.06,14.44,24.89,25.3,42.74,29.48a126.58,126.58,0,0,0,30.61,3.25c14.61-.24,29.19-2.13,43.78-3.36,18.54-1.56,37.06-2.29,56.43,2.58-.67-11.89-1.29-22.78-1.88-33.66C728.92,2299.31,725.56,2259.09,724.8,2218.82ZM508.24,2249.7c-28.62,19-60.41,30.34-94,36.92-39.7,7.77-77.45,2.52-113-17-22.09-12.14-30.31-32.67-31.69-56.39-.31-5.19,2.24-11.16,5.06-15.81,15.91-26.33,38.75-42,69.9-45.59,43.25-5,86.39-10.91,129.6-16.23,21.78-2.68,43.61-5,65.42-7.34,4.23-.46,8.51-.5,12.57-.72C562.11,2169.07,552.48,2220.33,508.24,2249.7Z" transform="translate(3265.94 -1417.03)"/><path class="cls-1" d="M3261,1885.1c-49-31.34-103.89-45.18-161.15-51-17.55-1.77-35.07-3.92-52.64-5.35-5.17-.42-65.85,2.93-90.73,7.33-35.69,6.32-71.23,13.24-105.91,24-80,24.88-130.81,78-152.56,158.6-15,55.69-15.41,112.09-3.4,168.24,17.71,82.73,65.66,140.54,145.57,170.36a554.57,554.57,0,0,0,126.58,31,530,530,0,0,0,119.62,1.15,536.82,536.82,0,0,0,142-34.6c58-22.83,99.79-62.95,124.08-120.42,20.54-48.56,29.67-99.37,25.89-152.15Q3369.16,1954.33,3261,1885.1Zm-71.07,283.62c-15.29,45.86-46.37,76.36-92.07,91.16s-91.82,14.54-137.19-1.4c-54.81-19.26-85.15-59.38-94.49-115.88a195.17,195.17,0,0,1,3.59-82.21c12.86-48.81,43.2-82,90.84-98.08,46.06-15.49,93-15.76,139.26-.7,55.83,18.17,86.47,58.31,96.06,115.31,1.87,11.11,2.17,22.49,3.2,33.74A186.36,186.36,0,0,1,3189.88,2168.72Z" transform="translate(3265.94 -1417.03)"/><path class="cls-1" d="M-131.88,1861.9c-59.06-22.83-120.44-32.91-186-33.3a650.57,650.57,0,0,0-105.83,10c-31.48,5.61-62.42,13.28-92,25.68-74.46,31.19-123.07,84.75-141.21,164.23a366.55,366.55,0,0,0-2.56,150.81c14.83,78.64,58.06,136,130.5,170.85,36.62,17.61,75.35,28.25,115.47,33.35,34.32,4.36,68.85,7.18,103.31,10.42a65.09,65.09,0,0,0,16.78-.7c17-2.87,34-6.28,51-9.37,36.66-6.67,73.13-14.15,108.48-26.16,71.88-24.41,119.79-72.68,142.48-145.15,18-57.48,19.32-116.09,7.47-174.81C-1.27,1952.5-50.36,1893.4-131.88,1861.9Zm-28.55,299.76c-14.39,50.8-47.34,84.17-97.64,99.44-43.86,13.31-88.26,13-131.7-1.77-54.44-18.54-85.79-57.74-95.87-113.86-5.29-29.5-4.52-59.17,3.84-88.13,15.17-52.56,50.4-84.82,102.58-99.29,18.73-5.19,37.93-7,58.62-6.72,24.2-.17,49.15,3.12,73.16,12.13,53,19.89,82.4,58.91,91.29,114C-151.58,2105.72-152.6,2134-160.43,2161.66Z" transform="translate(3265.94 -1417.03)"/><path class="cls-1" d="M3877.26,2101.27c.28-1.62.3-2,.4-2.26a3.76,3.76,0,0,1,.44-.9,18.39,18.39,0,0,1,1.2-1.59l211.11-241.7c.44-.5.89-1,1.32-1.51s.86-1,1.24-1.56a2.42,2.42,0,0,0,.33-.92,2.1,2.1,0,0,0,0-.93,6.75,6.75,0,0,0-.77-1.24l-4.56-.28c-21.6-1.27-43.2-2.64-64.81-3.8-21.28-1.13-42.57-2.25-63.87-3-40.53-1.45-75,12.8-103.58,41.25-9.43,9.39-18.89,18.88-27.26,29.2-19.5,24.07-38.3,48.71-57.49,73-4.25,5.4-8.95,10.46-14,16.27-3.36-4.25-6.21-7.49-8.66-11-13.3-19.15-26.11-38.65-39.86-57.48-12-16.38-24.2-32.68-37.65-47.84-19.38-21.86-43.92-34.9-73.15-39.49-28-4.39-55.83-2.33-83.74-.7-27.26,1.59-54.5,3.52-81.75,5.33-1.78.12-3.55.52-6.62,1l215.53,249.39c-19.91,22.87-39.34,45.2-58.79,67.51q-29.55,33.93-59.13,67.82c-19.49,22.35-39.11,44.6-58.47,67.07s-39.48,44.37-59.41,68.92h13.17c54.3.26,108.61.59,162.92.69a118.15,118.15,0,0,0,21.82-1.88c22.76-4.23,38.27-18.74,51.49-36.72q30.77-41.88,62.28-83.2c12.27-16.13,25.11-31.82,38.18-48.33,2.58,3.07,4.84,5.47,6.77,8.12q27.93,38.37,55.77,76.83c13.34,18.35,27.45,36.06,44.18,51.51,20.31,18.75,43.65,31,71.25,35.51,28.95,4.74,57.79,2.6,86.7.76,26.92-1.71,53.82-3.63,80.73-5.4,2.86-.19,5.74,0,8.62,0l1.17-2.6Z" transform="translate(3265.94 -1417.03)"/><path class="cls-1" d="M-2866.15,2282.09q144.92-92.36,289.85-184.69c3.21-2,6.25-4.33,10.42-7.24-117.22-74.93-233.06-149-349.44-223.39l-350.62,223.53c4.56,3,7.78,5.26,11.06,7.36q97.24,62.15,194.48,124.28c40.11,25.69,80.4,51.11,120,77.62,17.05,11.43,32.15,12,48.39-.5C-2883.89,2292.79-2874.86,2287.64-2866.15,2282.09Z" transform="translate(3265.94 -1417.03)"/><path class="cls-1" d="M-2565.11,1632.57c-3.6-2.63-5.61-4.28-7.78-5.66q-158.62-100.65-317.21-201.34c-16.16-10.3-32.05-10.29-47.93-1q-34.47,20.19-68.23,41.59-125.16,79.72-250,159.88c-2.9,1.86-5.67,4-9.44,6.6l349.95,223.6Z" transform="translate(3265.94 -1417.03)"/><path class="cls-1" d="M-2204.3,1851.49c6.36,4.08,10.78,3.67,16.86-.3,31.78-20.75,63.84-41.08,95.81-61.55q117.8-75.39,235.58-150.78c3.17-2,6.15-4.35,9.86-7-3.77-2.55-6.2-4.28-8.72-5.87Q-2014,1525.26-2173,1424.38c-15.47-9.86-29.87-9.47-44.91-.78-13,7.5-25.93,15-38.55,23.1q-141,90-281.93,180.29c-2.2,1.4-4.25,3-7.49,5.37,3.24,2.28,5.35,3.88,7.58,5.3Q-2371.25,1744.52-2204.3,1851.49Z" transform="translate(3265.94 -1417.03)"/><path class="cls-1" d="M-2546.16,2090.65c3.59,2.51,5.92,4.28,8.38,5.84q159.57,101,319.07,202c15.07,9.59,29.42,8.69,44.27,1.08,6.5-3.33,12.69-7.33,18.86-11.27q152.1-96.87,304.15-193.84c1.37-.88,2.63-1.93,5.49-4.06l-350.18-223.72Z" transform="translate(3265.94 -1417.03)"/><path class="cls-1" d="M1000.3,1669.78c-.21-.26-.44-.51-.76-.88H837.29v699h163a15.63,15.63,0,0,0,1-3.46q.11-344,.11-687.93a54.19,54.19,0,0,0-.55-5.94C1000.82,1670.29,1000.5,1670,1000.3,1669.78Z" transform="translate(3265.94 -1417.03)"/><path class="cls-1" d="M-2919.62,1862.3c2.46.63,3.88,1.22,5.33,1.26.68,0,1.4-1,2.4-1.78C-2914.14,1859.1-2916,1857.18-2919.62,1862.3Z" transform="translate(3265.94 -1417.03)"/><path class="cls-1" d="M-2194,1860.28c-2.51-2.27-3.91-1-5.14,2.46h5.37C-2193.87,1861.9-2193.6,1860.69-2194,1860.28Z" transform="translate(3265.94 -1417.03)"/></svg>